# xmcd
#
# Track frame offsets: 
#        150
#        20819
#        44199
#        73606
#        91991
#        115445
#        135420
#        160416
#        181132
#        205275
#        230416
#
# Disc length: 3320 seconds
#
# Revision: 1
# Processed by: cddbd v1.5.2PL0 Copyright (c) Steve Scherf et al.
# Submitted via: ExactAudioCopy v1.3
#
DISCID=9e0cf60b
DTITLE=Cam Ly - Em Gai Que
DYEAR=2004
DGENRE=Vietnamese
TTITLE0=Quen Cay Cau Dua
TTITLE1=Mua Chieu Mien Trung
TTITLE2=Noi Buon Chim Sao (Remix)
TTITLE3=Sao Anh No Danh Quen
TTITLE4=Phuong Buon
TTITLE5=Chanh Long
TTITLE6=Em Gai Que
TTITLE7=Thuong Em Hat Cau Va Quang
TTITLE8=Nho Me Ly Mo Coi
TTITLE9=Mua Dong Cua Anh
TTITLE10=Da Lat Hoang Hon
EXTD=
EXTT0=
EXTT1=
EXTT2=
EXTT3=
EXTT4=
EXTT5=
EXTT6=
EXTT7=
EXTT8=
EXTT9=
EXTT10=
PLAYORDER=
